<svg width="200" height="200" viewBox="0 0 200 200" fill="none" xmlns="http://www.w3.org/2000/svg">
<circle cx="72.5" cy="55.5" r="16.5" fill="#4585D3"/>
<path d="M99.7031 94C60.4909 94 28.7031 125.34 28.7031 164L170.703 164C170.703 125.34 138.915 94 99.7031 94Z" fill="#214F88"/>
<path d="M132.15 68.8953C132.252 87.6937 117.097 103.016 98.2983 103.119C79.4999 103.222 64.1775 88.0658 64.0747 69.2674C63.972 50.4691 79.1278 35.1467 97.9261 35.0439C116.725 34.9412 132.047 50.0969 132.15 68.8953Z" fill="#DCCCC7"/>
<ellipse cx="2.2917" cy="2.29168" rx="2.2917" ry="2.29168" transform="matrix(0.962466 0.271402 -0.271407 0.962465 87.1074 62)" fill="#171717"/>
<ellipse cx="2.2917" cy="2.29168" rx="2.2917" ry="2.29168" transform="matrix(0.962466 0.271402 -0.271407 0.962465 95.0645 64.3218)" fill="#171717"/>
<path d="M99.091 78.1467C97.4529 83.3914 92.0677 86.3758 87.0628 84.8126C82.0579 83.2493 79.3286 77.7304 80.9667 72.4856C82.6049 67.2409 85.9677 70.7314 90.9726 72.2946C95.9775 73.8579 100.729 72.9019 99.091 78.1467Z" fill="#F8FBFE"/>
<ellipse cx="85.5" cy="37" rx="16.5" ry="17" fill="#4585D3"/>
<circle cx="110.5" cy="36.5" r="16.5" fill="#4585D3"/>
<circle cx="129.5" cy="52.5" r="16.5" fill="#4585D3"/>
<circle cx="135.5" cy="71.5" r="16.5" fill="#4585D3"/>
<path d="M116.863 147.231C116.841 147.013 116.999 146.817 117.218 146.795L129.472 145.531C129.691 145.509 129.886 145.668 129.909 145.886L132.646 172.439C132.682 172.791 132.274 173.011 132 172.788L126.241 168.105C126.077 167.972 125.838 167.99 125.696 168.146L120.297 174.081C120.066 174.335 119.643 174.196 119.608 173.854L116.863 147.231Z" fill="#E95B24"/>
<path d="M126.635 151.322C126.51 151.142 126.554 150.894 126.735 150.769L136.859 143.749C137.039 143.624 137.287 143.669 137.412 143.849L152.623 165.785C152.824 166.076 152.574 166.466 152.225 166.402L144.921 165.08C144.714 165.043 144.513 165.174 144.464 165.379L142.599 173.182C142.519 173.516 142.082 173.598 141.886 173.316L126.635 151.322Z" fill="#E95B24"/>
<path d="M69.5448 156.737C69.2439 156.277 69.3722 155.661 69.8313 155.361L155.009 99.5446C155.468 99.2438 156.084 99.3721 156.385 99.8312L170.67 121.631C170.971 122.09 170.843 122.706 170.383 123.007L85.2058 178.823C84.7466 179.124 84.1305 178.995 83.8297 178.536L69.5448 156.737Z" fill="#E8EEF3"/>
<path d="M107.699 130.547L118.669 123.359L134.043 146.821L123.074 154.009L107.699 130.547Z" fill="#E95B24"/>
</svg>
