<svg width="200" height="200" viewBox="0 0 200 200" fill="none" xmlns="http://www.w3.org/2000/svg">
<path d="M79.493 98.8602C79.493 117.498 64.3842 132.607 45.7465 132.607C27.1088 132.607 12 117.498 12 98.8602C12 80.2226 27.1088 65.1138 45.7465 65.1138C64.3842 65.1138 79.493 80.2226 79.493 98.8602Z" fill="#718199"/>
<path d="M153.001 86.8325C153.001 105.47 137.892 120.579 119.254 120.579C100.617 120.579 85.5078 105.47 85.5078 86.8325C85.5078 68.1948 100.617 53.0859 119.254 53.0859C137.892 53.0859 153.001 68.1948 153.001 86.8325Z" fill="#718199"/>
<path d="M131.615 55.0897C131.615 71.6975 118.002 85.1608 101.21 85.1608C84.4176 85.1608 70.8047 71.6975 70.8047 55.0897C70.8047 38.4819 84.4176 25.0186 101.21 25.0186C118.002 25.0186 131.615 38.4819 131.615 55.0897Z" fill="#718199"/>
<path d="M84 101C44.7878 101 13 132.34 13 171L155 171C155 132.34 123.212 101 84 101Z" fill="#214F88"/>
<path d="M110.9 82.823C110.9 99.2463 97.5862 112.56 81.1629 112.56C64.7395 112.56 51.4258 99.2463 51.4258 82.823C51.4258 66.3997 64.7395 53.0859 81.1629 53.0859C97.5862 53.0859 110.9 66.3997 110.9 82.823Z" fill="#DCCCC7"/>
<path d="M79.6343 78.4004C79.8259 79.5336 79.0626 80.6075 77.9294 80.7992C76.7962 80.9908 75.7222 80.2275 75.5306 79.0943C75.3389 77.9611 76.1022 76.8871 77.2355 76.6955C78.3687 76.5039 79.4427 77.2672 79.6343 78.4004Z" fill="#171717"/>
<path d="M87.0562 75.9385C87.2478 77.0717 86.4845 78.1456 85.3513 78.3373C84.2181 78.5289 83.1441 77.7656 82.9524 76.6324C82.7608 75.4992 83.5241 74.4252 84.6573 74.2336C85.7905 74.042 86.8645 74.8053 87.0562 75.9385Z" fill="#171717"/>
<path fill-rule="evenodd" clip-rule="evenodd" d="M77.0936 88.5979C77.6476 91.9207 80.7903 94.1653 84.1131 93.6113C87.4358 93.0573 89.6804 89.9146 89.1265 86.5918L91.7552 86.1535C92.5512 90.9282 89.3259 95.444 84.5513 96.2401C79.7767 97.0361 75.2608 93.8107 74.4648 89.0361L77.0936 88.5979Z" fill="#171717"/>
<path d="M90.1854 47.0711C90.1854 63.679 76.722 77.1423 60.1142 77.1423C43.5063 77.1423 30.043 63.679 30.043 47.0711C30.043 30.4633 43.5063 17 60.1142 17C76.722 17 90.1854 30.4633 90.1854 47.0711Z" fill="#718199"/>
<path d="M99.0586 156.004C99.0586 153.785 100.857 151.986 103.076 151.986H178.066C180.284 151.986 182.083 153.785 182.083 156.004V162.699C182.083 164.918 180.284 166.716 178.066 166.716H103.076C100.857 166.716 99.0586 164.918 99.0586 162.699V156.004Z" fill="#CBD8E4"/>
<path d="M109.834 171.57C109.834 168.823 112.061 166.596 114.808 166.596H183.752C186.499 166.596 188.726 168.823 188.726 171.57V177.985C188.726 180.732 186.499 182.959 183.752 182.959H114.808C112.061 182.959 109.834 180.732 109.834 177.985V171.57Z" fill="#4585D3"/>
<path d="M106.326 169.209H145.011V180.815H106.326V169.209Z" fill="#ECECEC"/>
<path fill-rule="evenodd" clip-rule="evenodd" d="M104.002 168.349C104.002 167.381 104.787 166.596 105.755 166.596H140.954C144.67 166.596 147.681 169.608 147.681 173.323V176.182C147.681 179.897 144.67 182.909 140.954 182.909H105.755C104.787 182.909 104.002 182.124 104.002 181.156C104.002 180.188 104.787 179.403 105.755 179.403H140.954C142.733 179.403 144.175 177.961 144.175 176.182V173.323C144.175 171.544 142.733 170.103 140.954 170.103H105.755C104.787 170.103 104.002 169.318 104.002 168.349Z" fill="#204F88"/>
<path d="M86.1211 169.822L78.119 162.983L94.7575 143.515L102.76 150.353L86.1211 169.822Z" fill="#FACC15"/>
<path d="M75.4119 182.351C74.6343 183.26 73.2663 183.368 72.3564 182.59L67.8954 178.777C66.9855 178 66.8783 176.632 67.6559 175.722L87.3297 152.702C88.1073 151.792 89.4753 151.685 90.3852 152.463L94.8462 156.275C95.756 157.053 95.8633 158.421 95.0856 159.331L75.4119 182.351Z" fill="#FACC15"/>
<mask id="mask0_2927_32407" style="mask-type:alpha" maskUnits="userSpaceOnUse" x="66" y="143" width="36" height="40">
<path fill-rule="evenodd" clip-rule="evenodd" d="M71.2509 181.645C72.1608 182.423 73.5287 182.316 74.3064 181.406L79.4934 175.336L79.4934 175.337L101.652 149.409L94.7582 143.517L85.7138 154.1C85.7092 154.105 85.7046 154.11 85.7 154.116L67.4123 175.514C66.6347 176.424 66.7419 177.792 67.6518 178.569L71.2509 181.645Z" fill="#4585D3"/>
</mask>
<g mask="url(#mask0_2927_32407)">
<path d="M67.3242 182.843L59.5683 176.215L92.1784 138.058L99.9343 144.687L67.3242 182.843Z" fill="#FF9800"/>
</g>
<path d="M105.39 140.291L102.756 150.353L94.7538 143.514L104.103 139.212C104.815 138.884 105.588 139.532 105.39 140.291Z" fill="#E8EEF4"/>
<mask id="mask1_2927_32407" style="mask-type:alpha" maskUnits="userSpaceOnUse" x="94" y="139" width="12" height="12">
<path d="M105.39 140.291L102.756 150.353L94.7538 143.514L104.103 139.212C104.815 138.884 105.588 139.532 105.39 140.291Z" fill="#A3A3A3"/>
</mask>
<g mask="url(#mask1_2927_32407)">
<path d="M106.525 145.551L98.7185 138.879L102.086 134.939L109.893 141.611L106.525 145.551Z" fill="#EA580C"/>
</g>
</svg>
