<svg width="200" height="200" viewBox="0 0 200 200" fill="none" xmlns="http://www.w3.org/2000/svg">
<path d="M145.025 110.631C145.921 103.833 141.138 97.5959 134.34 96.6993C127.542 95.8027 121.305 100.586 120.409 107.384C119.512 114.181 124.296 120.419 131.093 121.315C137.891 122.212 144.128 117.428 145.025 110.631Z" fill="#EA580C"/>
<path d="M97 90.9995C57.7878 90.9995 26 122.34 26 161L168 161C168 122.34 136.212 90.9995 97 90.9995Z" fill="#214F88"/>
<path d="M135.937 89.8612C136.833 83.0636 132.05 76.8263 125.252 75.9297C118.455 75.0331 112.217 79.8167 111.321 86.6143C110.424 93.4119 115.208 99.6492 122.005 100.546C128.803 101.442 135.04 96.6587 135.937 89.8612Z" fill="#EA580C"/>
<path d="M38.6283 129.452C39.5249 122.655 45.7623 117.871 52.5599 118.768C59.3574 119.664 64.1411 125.901 63.2445 132.699C62.3479 139.496 56.1106 144.28 49.313 143.383C42.5154 142.487 37.7317 136.25 38.6283 129.452Z" fill="#EA580C"/>
<path d="M46.4157 108.682C47.3123 101.885 53.5496 97.1012 60.3471 97.9978C67.1446 98.8944 71.9282 105.132 71.0316 111.929C70.135 118.727 63.8977 123.51 57.1003 122.614C50.3028 121.717 45.5191 115.48 46.4157 108.682Z" fill="#EA580C"/>
<path d="M56.8023 87.9119C57.6989 81.1144 63.9362 76.3307 70.7337 77.2273C77.5313 78.1239 82.3149 84.3612 81.4183 91.1588C80.5218 97.9563 74.2844 102.74 67.4869 101.843C60.6894 100.947 55.9057 94.7095 56.8023 87.9119Z" fill="#EA580C"/>
<path d="M130.191 64.8431C130.293 83.6414 115.138 98.9638 96.3393 99.0666C77.5409 99.1694 62.2185 84.0136 62.1158 65.2152C62.013 46.4168 77.1688 31.0944 95.9672 30.9917C114.766 30.8889 130.088 46.0447 130.191 64.8431Z" fill="#B1BDC9"/>
<mask id="mask0_2927_32348" style="mask-type:luminance" maskUnits="userSpaceOnUse" x="62" y="30" width="69" height="70">
<path d="M129.101 73.5682C124.385 91.7656 105.809 102.694 87.6118 97.9776C69.4143 93.2612 58.4859 74.6858 63.2023 56.4884C67.9188 38.291 86.4941 27.3625 104.692 32.0789C122.889 36.7954 133.817 55.3707 129.101 73.5682Z" fill="white"/>
</mask>
<g mask="url(#mask0_2927_32348)">
<path d="M129.15 75.908C124.433 94.1054 105.858 105.034 87.6606 100.317C69.4632 95.6009 58.5347 77.0256 63.2511 58.8282C67.9676 40.6308 86.5429 29.7023 104.74 34.4188C122.938 39.1352 133.866 57.7106 129.15 75.908Z" fill="#DCCCC7"/>
<path d="M98.4603 30.8728C93.7439 49.0702 75.1685 59.9987 56.9711 55.2822C38.7737 50.5658 27.8452 31.9905 32.5617 13.7931C37.2781 -4.40434 55.8535 -15.3328 74.0509 -10.6164C92.2483 -5.89993 103.177 12.6754 98.4603 30.8728Z" fill="#EA580C"/>
<path d="M163.337 36.8806C158.621 55.078 140.045 66.0065 121.848 61.29C103.651 56.5736 92.7222 37.9983 97.4386 19.8009C102.155 1.60347 120.73 -9.32501 138.928 -4.60856C157.125 0.107879 168.054 18.6832 163.337 36.8806Z" fill="#EA580C"/>
</g>
<path d="M92.6655 59.8021C92.5198 61.3434 91.1521 62.4748 89.6107 62.3291C88.0693 62.1833 86.938 60.8156 87.0837 59.2743C87.2295 57.7329 88.5972 56.6016 90.1386 56.7473C91.6799 56.8931 92.8113 58.2607 92.6655 59.8021Z" fill="#101010"/>
<path d="M102.751 60.848C102.606 62.3893 101.238 63.5207 99.6967 63.375C98.1553 63.2292 97.0239 61.8615 97.1697 60.3202C97.3154 58.7788 98.6831 57.6475 100.224 57.7932C101.766 57.939 102.897 59.3066 102.751 60.848Z" fill="#101010"/>
<path fill-rule="evenodd" clip-rule="evenodd" d="M89.0925 74.3731C88.9141 77.3233 91.1612 79.8595 94.1114 80.0379C97.0616 80.2163 99.5978 77.9693 99.7762 75.0191L101.933 75.1495C101.683 79.2909 98.1224 82.4453 93.9809 82.1949C89.8395 81.9445 86.6851 78.3841 86.9355 74.2427L89.0925 74.3731Z" fill="#101010"/>
<path d="M171.606 130.633C171.606 135.659 167.532 139.734 162.505 139.734C157.479 139.734 153.404 135.659 153.404 130.633C153.404 125.607 157.479 121.532 162.505 121.532C167.532 121.532 171.606 125.607 171.606 130.633Z" fill="#91BDED"/>
<path d="M139.328 118.558C141.232 121.628 139.314 126.265 135.043 128.915C130.772 131.565 125.765 131.224 123.861 128.155C121.956 125.085 123.874 120.448 128.146 117.798C132.417 115.148 137.423 115.489 139.328 118.558Z" fill="#91BDED"/>
<path d="M135.202 146.559C135.202 151.586 131.127 155.66 126.101 155.66C121.075 155.66 117 151.586 117 146.559C117 141.533 121.075 137.458 126.101 137.458C131.127 137.458 135.202 141.533 135.202 146.559Z" fill="#91BDED"/>
<path fill-rule="evenodd" clip-rule="evenodd" d="M133.496 118.288C133.717 117.974 134.151 117.898 134.465 118.119C136.593 119.617 140.906 123.397 143.948 128.274C146.437 124.001 149.807 121.083 151.904 119.801C152.232 119.601 152.659 119.704 152.86 120.032C153.06 120.359 152.957 120.787 152.629 120.987C150.561 122.251 147.136 125.258 144.762 129.665C145.139 130.353 145.486 131.06 145.795 131.781C146.81 134.15 147.318 136.964 147.518 139.778C148.02 137.986 148.627 136.232 149.358 134.613C152.648 127.327 158.585 124.67 161.262 124.258C161.641 124.199 161.996 124.46 162.055 124.839C162.113 125.218 161.853 125.573 161.473 125.632C159.22 125.978 153.705 128.364 150.625 135.185C149.201 138.339 148.26 142.051 147.659 145.531C147.727 145.78 147.793 146.025 147.855 146.266C148.34 145.504 148.877 144.776 149.472 144.107C153.309 139.79 158.65 139.308 160.893 139.614C161.273 139.666 161.539 140.016 161.487 140.396C161.436 140.777 161.085 141.043 160.705 140.991C158.776 140.728 153.954 141.156 150.511 145.03C149.667 145.98 148.94 147.072 148.319 148.224C149.07 151.749 149.14 154.25 148.974 155.47C148.922 155.85 148.571 156.117 148.191 156.065C147.811 156.013 147.544 155.662 147.596 155.282C147.71 154.447 147.696 152.762 147.306 150.358C147.18 150.661 147.06 150.964 146.947 151.267C146.928 151.378 146.91 151.488 146.892 151.595C146.758 153.234 146.705 154.638 146.705 155.66C146.705 156.044 146.394 156.356 146.01 156.356C145.837 156.356 145.679 156.293 145.558 156.188C145.421 156.898 145.33 157.517 145.279 158.007C145.24 158.389 144.898 158.667 144.516 158.627C144.134 158.588 143.857 158.246 143.896 157.864C144.044 156.436 144.496 154.066 145.374 151.53C145.429 151.373 145.485 151.215 145.542 151.056C145.667 149.64 145.849 148.068 146.104 146.422C146.128 146.075 146.15 145.722 146.168 145.364C145.523 143.121 144.623 140.564 143.382 137.738C143.101 137.097 142.809 136.497 142.507 135.935C142.324 136.891 142.201 137.884 142.154 138.913C141.928 143.762 142.211 147.481 142.65 150.151C143.093 152.843 143.686 154.419 144.046 155.018C144.244 155.348 144.137 155.775 143.808 155.972C143.478 156.17 143.052 156.063 142.854 155.734C142.36 154.911 141.731 153.131 141.278 150.377C140.821 147.6 140.535 143.783 140.765 138.848C140.841 137.212 141.092 135.662 141.476 134.204C137.635 128.412 132.826 127.764 130.793 128.185C130.417 128.263 130.049 128.021 129.971 127.645C129.893 127.269 130.135 126.901 130.511 126.824C133.024 126.304 137.963 127.124 141.988 132.52C142.333 131.528 142.736 130.585 143.181 129.693C140.267 124.705 135.804 120.761 133.665 119.256C133.351 119.035 133.275 118.602 133.496 118.288ZM144.002 131.212C143.611 132.088 143.266 133.012 142.982 133.979C143.572 134.928 144.134 135.991 144.655 137.179C145.238 138.506 145.748 139.778 146.194 140.99C146.063 137.899 145.583 134.814 144.518 132.329C144.356 131.952 144.184 131.58 144.002 131.212ZM131.24 141.807C129.229 141.127 127.281 140.953 126.128 140.997C125.744 141.012 125.422 140.713 125.407 140.329C125.392 139.946 125.691 139.623 126.075 139.608C127.387 139.558 129.505 139.753 131.685 140.49C133.866 141.228 136.166 142.529 137.757 144.73C139.301 146.869 140.348 149.514 141.033 151.922C141.719 154.335 142.054 156.557 142.152 157.884C142.181 158.267 141.893 158.6 141.511 158.629C141.128 158.657 140.794 158.37 140.766 157.987C140.675 156.755 140.356 154.625 139.696 152.303C139.034 149.976 138.043 147.501 136.63 145.544C135.262 143.651 133.249 142.487 131.24 141.807Z" fill="#91BDED"/>
<path d="M144.586 175C155.11 175 163.641 166.469 163.641 155.945V148.531C163.641 148.071 163.268 147.697 162.807 147.697H126.365C125.905 147.697 125.531 148.071 125.531 148.531V155.945C125.531 166.469 134.063 175 144.586 175Z" fill="#FACC15"/>
<path d="M173.313 144.853C173.313 149.88 169.239 153.954 164.212 153.954C159.186 153.954 155.111 149.88 155.111 144.853C155.111 139.827 159.186 135.752 164.212 135.752C169.239 135.752 173.313 139.827 173.313 144.853Z" fill="#4585D3"/>
<path d="M134.068 136.442C131.945 140.998 127.8 143.561 124.81 142.168C121.82 140.775 121.118 135.952 123.241 131.396C125.365 126.84 129.51 124.277 132.499 125.67C135.489 127.063 136.191 131.886 134.068 136.442Z" fill="#4585D3"/>
<path d="M151.698 142.009C151.698 147.035 147.623 151.11 142.597 151.11C137.571 151.11 133.496 147.035 133.496 142.009C133.496 136.983 137.571 132.908 142.597 132.908C147.623 132.908 151.698 136.983 151.698 142.009Z" fill="#4585D3"/>
<path d="M163.103 129.686C161.327 132.277 156.527 132.076 152.38 129.235C148.233 126.395 146.311 121.991 148.086 119.399C149.862 116.808 154.662 117.009 158.809 119.85C162.956 122.69 164.878 127.094 163.103 129.686Z" fill="#4585D3"/>
</svg>
