<svg width="36" height="36" viewBox="0 0 36 36" fill="none" xmlns="http://www.w3.org/2000/svg">
<path d="M36 18C36 27.9411 27.9411 36 18 36C8.05886 36 -1.37329e-05 27.9411 -8.8469e-06 18C-3.96089e-06 8.05887 8.05888 0 18 0C27.9411 0 36 8.05887 36 18Z" fill="white"/>
<path d="M15.3414 13.5731C15.5848 14.6503 14.9088 15.7208 13.8316 15.9641C12.7544 16.2074 11.6839 15.5315 11.4406 14.4543C11.1973 13.3771 11.8732 12.3066 12.9504 12.0633C14.0276 11.82 15.0981 12.4959 15.3414 13.5731Z" fill="#171717"/>
<path d="M22.3141 11.95C22.5574 13.0272 21.8814 14.0977 20.8042 14.341C19.7271 14.5844 18.6566 13.9084 18.4132 12.8313C18.1699 11.7541 18.8459 10.6836 19.9231 10.4403C21.0003 10.1969 22.0707 10.8729 22.3141 11.95Z" fill="#171717"/>
<path fill-rule="evenodd" clip-rule="evenodd" d="M15.2048 21.6414C15.6471 23.7027 17.6766 25.015 19.7379 24.5727C21.7991 24.1304 23.1115 22.1008 22.6691 20.0396L24.1761 19.7162C24.7971 22.6097 22.9548 25.4587 20.0613 26.0797C17.1678 26.7007 14.3187 24.8584 13.6978 21.9648L15.2048 21.6414Z" fill="black"/>
</svg>
