<svg width="200" height="200" viewBox="0 0 200 200" fill="none" xmlns="http://www.w3.org/2000/svg">
<path d="M90.7031 85.3525C51.4909 85.3525 19.7031 116.693 19.7031 155.353L161.703 155.353C161.703 116.693 129.915 85.3525 90.7031 85.3525Z" fill="#214F88"/>
<path d="M123.15 60.2479C123.252 79.0462 108.097 94.3686 89.2983 94.4714C70.4999 94.5741 55.1775 79.4184 55.0747 60.62C54.972 41.8216 70.1278 26.4992 88.9261 26.3965C107.725 26.2937 123.047 41.4495 123.15 60.2479Z" fill="#DCCCC7"/>
<mask id="mask0_2927_32382" style="mask-type:alpha" maskUnits="userSpaceOnUse" x="55" y="26" width="69" height="69">
<path d="M123.152 60.2474C123.254 79.0457 108.099 94.3681 89.3002 94.4709C70.5018 94.5737 55.1794 79.4179 55.0767 60.6195C54.9739 41.8211 70.1297 26.4987 88.9281 26.396C107.726 26.2932 123.049 41.449 123.152 60.2474Z" fill="#B1BDC9"/>
</mask>
<g mask="url(#mask0_2927_32382)">
<rect x="24.7461" y="18.6182" width="86.802" height="49.358" transform="rotate(-20.2432 24.7461 18.6182)" fill="#FACC15"/>
</g>
<ellipse cx="2.96379" cy="2.96383" rx="2.96379" ry="2.96383" transform="matrix(0.923621 -0.383306 0.383292 0.923627 83.0176 53.6309)" fill="#171717"/>
<ellipse cx="2.96379" cy="2.96381" rx="2.96379" ry="2.96381" transform="matrix(0.923623 -0.383302 0.383295 0.923626 92.959 49.6123)" fill="#171717"/>
<circle cx="98.9372" cy="64.5866" r="4.23404" fill="white"/>
<path d="M147.07 65.7289C147.73 63.9677 149.693 63.0753 151.454 63.7355L178.028 73.6974C179.789 74.3576 180.682 76.3205 180.022 78.0817L150.933 155.677C150.272 157.438 148.31 158.33 146.548 157.67L119.975 147.708C118.214 147.048 117.321 145.085 117.981 143.324L147.07 65.7289Z" fill="#CBD8E4"/>
<path d="M147.556 64.4318C147.867 63.6025 148.965 63.4328 149.512 64.1295L165.953 85.081C166.686 86.016 166.879 87.2658 166.462 88.3787L137.782 164.885C136.849 167.373 133.554 167.882 131.914 165.792L117.967 148.019C117.233 147.084 117.04 145.834 117.457 144.721L147.556 64.4318Z" fill="#A1B6CA"/>
<path d="M132.988 77.4222C133.648 75.6611 135.611 74.7686 137.372 75.4288L166.072 86.1877C166.659 86.4078 166.957 87.0621 166.736 87.6491L136.851 167.37C136.19 169.131 134.228 170.024 132.466 169.363L105.893 159.402C104.132 158.741 103.239 156.778 103.899 155.017L132.988 77.4222Z" fill="#F8FAFC"/>
<mask id="mask1_2927_32382" style="mask-type:alpha" maskUnits="userSpaceOnUse" x="103" y="75" width="64" height="95">
<path d="M132.988 77.4232C133.648 75.6621 135.611 74.7696 137.372 75.4298L166.072 86.1887C166.659 86.4088 166.957 87.0631 166.736 87.6501L136.851 167.371C136.19 169.132 134.228 170.025 132.466 169.364L105.893 159.403C104.132 158.742 103.239 156.779 103.899 155.018L132.988 77.4232Z" fill="#F8FAFC"/>
</mask>
<g mask="url(#mask1_2927_32382)">
<path fill-rule="evenodd" clip-rule="evenodd" d="M131.428 76.324C130.729 75.9205 130.138 75.6712 129.675 75.5553L130.226 73.3528C130.962 73.5369 131.755 73.8908 132.564 74.3581L131.428 76.324ZM136.369 80.3832C135.274 79.2454 134.185 78.2719 133.167 77.4968L134.543 75.6907C135.664 76.5448 136.839 77.5981 138.005 78.8089L136.369 80.3832ZM152.441 78.725C152.742 77.9561 153.062 77.284 153.37 76.7362L155.349 77.8494C155.098 78.2947 154.822 78.8702 154.555 79.5533L152.441 78.725ZM140.448 85.4668C139.62 84.2255 138.734 83.0607 137.826 81.9945L139.555 80.5229C140.518 81.6542 141.458 82.8896 142.337 84.207L140.448 85.4668ZM151.021 85.0076C151.132 83.4741 151.408 82.0396 151.76 80.771L153.948 81.3785C153.631 82.5187 153.384 83.8046 153.285 85.1722L151.021 85.0076ZM143.526 91.1855C142.975 89.8505 142.323 88.5526 141.599 87.3105L143.561 86.168C144.331 87.4905 145.031 88.8806 145.625 90.3192L143.526 91.1855ZM151.648 91.4646C151.232 90.0095 151.029 88.5628 150.979 87.1709L153.248 87.0897C153.292 88.3178 153.471 89.5808 153.831 90.8413L151.648 91.4646ZM145.217 97.3674C145.039 95.9684 144.714 94.5752 144.27 93.206L146.431 92.5069C146.912 93.9952 147.271 95.5264 147.469 97.0803L145.217 97.3674ZM153.385 95.4721C152.999 94.8298 152.667 94.1792 152.384 93.5247L154.467 92.6222C154.712 93.187 154.998 93.7488 155.332 94.3042C155.668 94.8659 156.036 95.3982 156.429 95.9022L154.638 97.2976C154.191 96.7241 153.771 96.1161 153.385 95.4721ZM159.457 101.75C158.292 100.96 157.147 100.034 156.091 98.9563L157.712 97.367C158.65 98.3239 159.676 99.1552 160.73 99.8701L159.457 101.75ZM145.282 101.582C145.355 100.883 145.383 100.181 145.371 99.4787L147.641 99.4398C147.655 100.23 147.623 101.022 147.541 101.816C147.446 102.729 147.314 103.58 147.147 104.375L144.925 103.908C145.075 103.197 145.195 102.424 145.282 101.582ZM165.27 104.671C164.032 104.236 162.678 103.648 161.311 102.889L162.414 100.904C163.66 101.597 164.896 102.133 166.023 102.529L165.27 104.671ZM169.611 105.669C168.99 105.631 168.223 105.506 167.369 105.298L167.907 103.092C168.671 103.278 169.301 103.375 169.752 103.403L169.611 105.669ZM142.042 109.93C142.932 108.972 143.715 107.753 144.305 106.121L146.44 106.894C145.75 108.802 144.81 110.287 143.705 111.476L142.042 109.93ZM136.223 113.554C137.701 112.919 139.102 112.281 140.365 111.387L141.676 113.24C140.2 114.285 138.602 115.003 137.12 115.64L136.223 113.554ZM129.531 117.556C130.796 116.17 132.37 115.284 133.938 114.555L134.896 116.613C133.418 117.301 132.169 118.034 131.207 119.087L129.531 117.556ZM127.135 122.47C127.333 121.504 127.618 120.643 127.982 119.872L130.035 120.842C129.755 121.434 129.524 122.121 129.359 122.927C129.202 123.694 129.068 124.404 128.958 125.059L126.719 124.682C126.835 123.996 126.973 123.26 127.135 122.47ZM149.071 124.956C148.469 124.861 147.839 124.854 147.182 124.926L146.935 122.669C147.764 122.579 148.598 122.583 149.425 122.714C150.152 122.828 150.825 122.988 151.447 123.188L150.751 125.349C150.249 125.188 149.691 125.054 149.071 124.956ZM145.241 125.336C143.998 125.712 142.717 126.293 141.427 126.991L140.347 124.994C141.717 124.254 143.144 123.598 144.584 123.163L145.241 125.336ZM154.484 128.229C154.012 127.373 153.307 126.606 152.27 126.011L153.4 124.041C154.806 124.848 155.804 125.921 156.472 127.133L154.484 128.229ZM136.389 130.104C136.229 130.21 136.069 130.315 135.911 130.419L134.664 128.522C134.819 128.42 134.977 128.316 135.137 128.211C136.162 127.535 137.262 126.811 138.394 126.122L139.575 128.06C138.48 128.727 137.417 129.427 136.389 130.104ZM126.693 131.83C126.224 130.706 126.17 129.067 126.401 126.938L128.658 127.183C128.432 129.264 128.556 130.401 128.788 130.956L126.693 131.83ZM155.264 133.095C155.384 131.963 155.347 130.801 155.07 129.727L157.269 129.161C157.629 130.559 157.663 132.004 157.522 133.334L155.264 133.095ZM131.728 132.915C131.013 133.249 130.275 133.512 129.567 133.574L129.368 131.313C129.689 131.285 130.147 131.147 130.766 130.858C131.373 130.574 132.065 130.178 132.84 129.697L134.038 131.625C133.234 132.125 132.454 132.575 131.728 132.915ZM154.437 136.468C154.629 135.988 154.812 135.426 154.963 134.814L157.168 135.354C156.993 136.068 156.777 136.731 156.544 137.312L154.437 136.468Z" fill="#EA580C"/>
<path d="M110.703 133.353L145.703 146.353" stroke="#EA580C" stroke-width="2.5" stroke-dasharray="4 2"/>
<path d="M124.057 87.5878C124.497 86.4137 125.805 85.8187 126.979 86.2589L137.609 90.2436C138.783 90.6838 139.378 91.9924 138.938 93.1665L136.547 99.5442C136.107 100.718 134.798 101.313 133.624 100.873L122.995 96.8883C121.821 96.4482 121.226 95.1396 121.666 93.9655L124.057 87.5878Z" fill="#429946"/>
<path d="M159.564 83.8866C160.005 82.7125 161.313 82.1176 162.487 82.5577L173.117 86.5425C174.291 86.9826 174.886 88.2912 174.446 89.4653L172.055 95.843C171.615 97.0171 170.306 97.6121 169.132 97.1719L158.502 93.1872C157.328 92.747 156.733 91.4384 157.174 90.2643L159.564 83.8866Z" fill="#429946"/>
<path d="M125.529 103.48C125.969 102.306 127.278 101.711 128.452 102.151L133.767 104.143C134.941 104.583 135.536 105.892 135.096 107.066L133.502 111.318C133.062 112.492 131.753 113.087 130.579 112.647L125.264 110.655C124.09 110.214 123.495 108.906 123.935 107.732L125.529 103.48Z" fill="#429946"/>
<path d="M126.75 158.896C127.419 157.113 129.407 156.209 131.19 156.878L139.264 159.904C141.047 160.573 141.951 162.561 141.282 164.344L138.861 170.803C138.193 172.586 136.205 173.49 134.421 172.821L126.348 169.795C124.564 169.126 123.66 167.139 124.329 165.355L126.75 158.896Z" fill="#429946"/>
<path d="M105.418 142.656C106.102 140.832 107.926 139.829 109.493 140.416L116.586 143.075C118.152 143.662 118.868 145.617 118.184 147.442L115.707 154.049C115.023 155.873 113.199 156.876 111.632 156.289L104.539 153.63C102.973 153.043 102.257 151.088 102.941 149.263L105.418 142.656Z" fill="#429946"/>
<path d="M152.469 107.32C152.909 106.146 154.217 105.551 155.392 105.991L160.706 107.984C161.88 108.424 162.475 109.732 162.035 110.907L158.476 120.4C158.036 121.574 156.728 122.169 155.554 121.729L150.239 119.736C149.065 119.296 148.47 117.988 148.91 116.813L152.469 107.32Z" fill="#429946"/>
</g>
</svg>
