<svg width="36" height="36" viewBox="0 0 36 36" fill="none" xmlns="http://www.w3.org/2000/svg">
<path d="M36 18C36 27.9411 27.9411 36 18 36C8.05886 36 -1.37329e-05 27.9411 -8.8469e-06 18C-3.96089e-06 8.05887 8.05888 0 18 0C27.9411 0 36 8.05887 36 18Z" fill="white"/>
<path d="M16.2186 14.446C16.399 15.2446 15.8979 16.0382 15.0993 16.2186C14.3007 16.399 13.507 15.8979 13.3266 15.0993C13.1462 14.3007 13.6474 13.5071 14.446 13.3267C15.2446 13.1463 16.0382 13.6474 16.2186 14.446Z" fill="#171717"/>
<path d="M21.388 13.2429C21.5684 14.0414 21.0673 14.8351 20.2687 15.0155C19.4701 15.1959 18.6765 14.6948 18.4961 13.8962C18.3157 13.0976 18.8168 12.3039 19.6154 12.1235C20.414 11.9431 21.2076 12.4443 21.388 13.2429Z" fill="#171717"/>
<path fill-rule="evenodd" clip-rule="evenodd" d="M16.1173 20.4272C16.4452 21.9554 17.9498 22.9283 19.478 22.6004C21.0061 22.2724 21.9791 20.7678 21.6511 19.2397L22.7684 18.9999C23.2287 21.1451 21.8629 23.2573 19.7177 23.7176C17.5726 24.178 15.4604 22.8122 15 20.667L16.1173 20.4272Z" fill="black"/>
</svg>
